<?xml version="1.0" encoding="utf-8"?>
<!-- Generator: Adobe Illustrator 22.1.0, SVG Export Plug-In . SVG Version: 6.00 Build 0)  -->
<svg version="1.1" id="Layer_1" xmlns="http://www.w3.org/2000/svg" xmlns:xlink="http://www.w3.org/1999/xlink" x="0px" y="0px"
	 viewBox="0 0 339.9 27.6" style="enable-background:new 0 0 339.9 27.6;" xml:space="preserve">
<style type="text/css">
	.st0{fill:#00AE42;}
	.st1{fill:#FFFFFF;}
</style>
<g>
	<g>
		<g>
			<g>
				<path class="st0" d="M202.2,2.8c-0.9,0-1.6,0.8-1.6,1.7v19.2c0,0.1-0.1,0.2-0.2,0.1c-0.3-0.4-13.5-15.5-15.9-18.4
					c-0.8-0.9-1.7-1.8-2.7-2.3c-0.4-0.2-0.9-0.4-1.6-0.3c-0.1,0-0.1,0-0.2,0c-1.4,0.1-2.3,1.4-2.3,2.8v19.7c0,0.9,0.7,1.7,1.6,1.7
					c0.9,0,1.7-0.8,1.7-1.7V6.2c0-0.1,0.1-0.2,0.2-0.1c2.5,2.8,15.6,18.3,15.7,18.4c0.8,0.9,1.7,1.8,2.7,2.3
					c0.4,0.2,1.2,0.4,1.8,0.3c0.1,0,0.1,0,0.2,0c1.4-0.1,2.3-1.4,2.3-2.7V4.4C203.8,3.5,203.1,2.7,202.2,2.8z"/>
			</g>
		</g>
	</g>
	<g>
		<g>
			<rect x="158" class="st0" width="4.1" height="10.8"/>
		</g>
	</g>
	<g>
		<g>
			<path class="st0" d="M160.2,27.6c-7.3,0-13.3-6-13.3-13.5c0-4.8,2.6-9.3,6.7-11.7l2,3.6c-2.9,1.7-4.7,4.8-4.7,8.1
				c0,5.2,4.1,9.4,9.2,9.4c5.1,0,9.2-4.2,9.2-9.4c0-3.4-1.8-6.5-4.7-8.1l2-3.6c4.2,2.4,6.7,6.9,6.7,11.7
				C173.5,21.5,167.5,27.6,160.2,27.6z"/>
		</g>
	</g>
	<g>
		<path class="st1" d="M140.1,2.8c-1.5-0.4-3.1,0.3-3.8,1.7l-9.4,18.3c-0.4,0.8-1.1,0.8-1.4,0.8h0h0c-0.3,0-1-0.1-1.4-0.8l-9.4-18.3
			c-0.7-1.4-2.3-2.1-3.8-1.7c-1.5,0.4-2.6,1.7-2.6,3.3v19.2c0,0.9,0.7,1.7,1.6,1.7c0.9,0,1.6-0.7,1.6-1.7V5.9c0-0.1,0-0.2,0.1-0.2
			c0.1,0,0.1,0.1,0.2,0.1l9.4,18.4c0.8,1.6,2.5,2.6,4.3,2.6c1.8,0,3.4-1,4.3-2.6l9.4-18.4c0-0.1,0.1-0.2,0.2-0.1
			c0.1,0,0.1,0.1,0.1,0.2v19.6c0,0.9,0.7,1.7,1.6,1.7c0.9,0,1.6-0.7,1.6-1.7V6.2C142.7,4.6,141.6,3.2,140.1,2.8z"/>
	</g>
	<g>
		<path class="st1" d="M27.4,2.9c-0.8-0.4-1.8-0.1-2.2,0.7L15,23.5c-0.2,0.4-0.5,0.6-0.8,0.6c-0.3,0-0.6-0.2-0.8-0.6L3.1,3.6
			C2.7,2.8,1.7,2.5,0.9,2.9C0.1,3.4-0.2,4.4,0.2,5.2l10.2,19.5c0.8,1.5,2.2,2.4,3.7,2.4c1.5,0,2.9-0.9,3.7-2.4L28.1,5.2
			C28.5,4.4,28.2,3.4,27.4,2.9z"/>
	</g>
	<g>
		<path class="st1" d="M39.8,2.3c-6.8,0-12.4,5.7-12.4,12.6c0,6.9,5.5,12.6,12.4,12.6c3.9,0,7.6-1.9,9.9-5.1
			c0.5-0.7,0.4-1.8-0.3-2.3c-0.7-0.5-1.7-0.4-2.3,0.3c-1.7,2.4-4.4,3.9-7.3,3.9c-4.5,0-8.2-3.4-9-7.8h19.7c0.9,0,1.6-0.7,1.6-1.7
			C52.2,7.9,46.6,2.3,39.8,2.3z M30.9,13.5c0.8-4.3,4.5-8.1,9-8.1c4.5,0,8.2,3.7,9,8.1H30.9z"/>
	</g>
	<g>
		<path class="st1" d="M66.7,2.3c-6.8,0-12.4,5.7-12.4,12.6c0,6.9,5.5,12.6,12.4,12.6c3.9,0,7.6-1.9,9.9-5.1
			c0.5-0.7,0.4-1.8-0.3-2.3c-0.7-0.5-1.7-0.4-2.3,0.3c-1.7,2.4-4.4,3.9-7.3,3.9c-4.5,0-8.2-3.4-9-7.8h19.7c0.9,0,1.6-0.7,1.6-1.7
			C79,7.9,73.5,2.3,66.7,2.3z M57.7,13.5c0.8-4.3,4.5-8.1,9-8.1s8.2,3.7,9,8.1H57.7z"/>
	</g>
	<g>
		<path class="st1" d="M95.6,5.1c-0.8-1.4-2.1-2.3-3.6-2.3c-1.5,0-2.8,0.9-3.6,2.3L78.2,24.7c-0.4,0.8-0.1,1.8,0.7,2.2
			c0.2,0.1,0.5,0.2,0.8,0.2c0.6,0,1.2-0.3,1.4-0.9l2.9-5.5h11.8c0.9,0,1.6-0.7,1.6-1.6c0-0.9-0.8-1.6-1.7-1.6l-10.1,0l5.7-11.3
			c0.2-0.3,0.4-0.5,0.7-0.5c0.3,0,0.5,0.2,0.7,0.5l10.3,20c0.4,0.8,1.4,1.1,2.2,0.7c0.8-0.4,1-1.6,0.6-2.4L95.6,5.1z"/>
	</g>
	<g>
		<path class="st0" d="M217.3,2.7h17.1v4.5h-11.7v5.6h10.2V17h-10.2v10h-5.3V2.7z"/>
		<path class="st0" d="M236.5,15c0-1.8,0.3-3.5,0.8-5c0.5-1.6,1.3-2.9,2.3-4.1c1-1.2,2.3-2.1,3.7-2.7c1.5-0.7,3.2-1,5-1
			c1.9,0,3.6,0.3,5,1c1.5,0.7,2.7,1.6,3.7,2.7c1,1.2,1.8,2.5,2.3,4.1c0.5,1.6,0.8,3.2,0.8,5c0,1.7-0.3,3.4-0.8,4.9
			c-0.5,1.5-1.3,2.9-2.3,4c-1,1.1-2.3,2-3.7,2.7c-1.5,0.7-3.2,1-5,1c-1.9,0-3.6-0.3-5-1c-1.5-0.7-2.7-1.6-3.7-2.7
			c-1-1.1-1.8-2.5-2.3-4C236.7,18.4,236.5,16.7,236.5,15z M241.8,15c0,1,0.1,2,0.4,3c0.2,1,0.6,1.8,1.1,2.6c0.5,0.8,1.2,1.4,2,1.9
			c0.8,0.5,1.9,0.7,3.1,0.7s2.2-0.2,3.1-0.7c0.8-0.5,1.5-1.1,2-1.9c0.5-0.8,0.9-1.6,1.1-2.6s0.4-2,0.4-3c0-1.1-0.1-2.1-0.4-3.1
			s-0.6-1.9-1.1-2.7c-0.5-0.8-1.2-1.4-2-1.9c-0.8-0.5-1.9-0.7-3.1-0.7s-2.2,0.2-3.1,0.7c-0.8,0.5-1.5,1.1-2,1.9
			c-0.5,0.8-0.9,1.7-1.1,2.7C241.9,12.9,241.8,13.9,241.8,15z"/>
		<path class="st0" d="M264,2.7h13.1c1.1,0,2.1,0.2,2.9,0.5c0.9,0.4,1.6,0.8,2.2,1.4c0.6,0.6,1.1,1.3,1.4,2.1
			c0.3,0.8,0.5,1.7,0.5,2.6c0,1.4-0.3,2.7-0.9,3.7c-0.6,1-1.6,1.8-2.9,2.4v0.1c0.7,0.2,1.2,0.5,1.6,0.8c0.4,0.4,0.8,0.8,1.1,1.3
			c0.3,0.5,0.5,1.1,0.6,1.7c0.1,0.6,0.2,1.2,0.3,1.8c0,0.4,0,0.8,0.1,1.4c0,0.5,0.1,1,0.1,1.6c0.1,0.5,0.1,1,0.3,1.5
			c0.1,0.5,0.3,0.9,0.6,1.3h-5.3c-0.2-0.4-0.3-0.8-0.4-1.3c-0.1-0.5-0.1-1-0.2-1.5c-0.1-0.5-0.1-1-0.1-1.6c0-0.5-0.1-1-0.2-1.5
			c-0.2-1.3-0.6-2.2-1.2-2.8c-0.6-0.6-1.6-0.9-2.9-0.9h-5.3V27H264V2.7z M269.3,13.7h5.8c1.2,0,2.1-0.3,2.7-0.8
			c0.6-0.5,0.9-1.4,0.9-2.7c0-1.2-0.3-2-0.9-2.6c-0.6-0.5-1.5-0.8-2.7-0.8h-5.8V13.7z"/>
		<path class="st0" d="M309.1,17.8c0,3.3-0.9,5.7-2.8,7.3c-1.8,1.6-4.4,2.4-7.6,2.4c-3.3,0-5.8-0.8-7.6-2.4
			c-1.8-1.6-2.7-4.1-2.7-7.4V2.7h5.3v15.1c0,0.7,0.1,1.3,0.2,1.9c0.1,0.6,0.4,1.2,0.7,1.7c0.4,0.5,0.9,0.9,1.5,1.2
			c0.6,0.3,1.5,0.4,2.6,0.4c1.9,0,3.2-0.4,3.9-1.3c0.7-0.9,1.1-2.2,1.1-4V2.7h5.3V17.8z"/>
		<path class="st0" d="M313.7,2.7h7.5l5.7,16.7h0.1l5.4-16.7h7.5V27h-5V9.8h-0.1l-6,17.2h-4.1l-6-17h-0.1v17h-5V2.7z"/>
	</g>
</g>
</svg>
